<mxfile host="app.diagrams.net" agent="Mozilla/5.0 (X11; Linux x86_64; rv:140.0) Gecko/20100101 Firefox/140.0" version="27.1.6">
  <diagram name="Page-1" id="c_VZa1kq2EoQ4XZcFBsR">
    <mxGraphModel dx="1384" dy="880" grid="1" gridSize="10" guides="1" tooltips="1" connect="1" arrows="1" fold="1" page="1" pageScale="1" pageWidth="850" pageHeight="1100" math="0" shadow="0">
      <root>
        <mxCell id="0" />
        <mxCell id="1" parent="0" />
        <mxCell id="guAKBY9zXK_D3ZB1R3vA-5" value="" style="whiteSpace=wrap;html=1;aspect=fixed;" vertex="1" parent="1">
          <mxGeometry x="80" y="80" width="240" height="240" as="geometry" />
        </mxCell>
        <mxCell id="guAKBY9zXK_D3ZB1R3vA-9" value="&lt;div&gt;QUAD_H_0&lt;/div&gt;" style="endArrow=none;html=1;rounded=0;startArrow=baseDash;startFill=0;" edge="1" parent="1">
          <mxGeometry x="0.0006" y="10" width="50" height="50" relative="1" as="geometry">
            <mxPoint x="120" y="120" as="sourcePoint" />
            <mxPoint x="280" y="120" as="targetPoint" />
            <mxPoint as="offset" />
          </mxGeometry>
        </mxCell>
        <mxCell id="guAKBY9zXK_D3ZB1R3vA-14" value="&lt;div&gt;QUAD_H_1&lt;/div&gt;" style="endArrow=none;html=1;rounded=0;startArrow=cross;startFill=0;" edge="1" parent="1">
          <mxGeometry x="0.0006" y="10" width="50" height="50" relative="1" as="geometry">
            <mxPoint x="120" y="160" as="sourcePoint" />
            <mxPoint x="280" y="160" as="targetPoint" />
            <mxPoint as="offset" />
          </mxGeometry>
        </mxCell>
        <mxCell id="guAKBY9zXK_D3ZB1R3vA-15" value="&lt;div&gt;QUAD_H_2&lt;/div&gt;" style="endArrow=none;html=1;rounded=0;startArrow=cross;startFill=0;" edge="1" parent="1">
          <mxGeometry y="10" width="50" height="50" relative="1" as="geometry">
            <mxPoint x="120" y="199.76" as="sourcePoint" />
            <mxPoint x="280" y="199.76" as="targetPoint" />
            <mxPoint as="offset" />
          </mxGeometry>
        </mxCell>
        <mxCell id="guAKBY9zXK_D3ZB1R3vA-16" value="&lt;div&gt;QUAD_H_3&lt;/div&gt;" style="endArrow=none;html=1;rounded=0;startArrow=cross;startFill=0;" edge="1" parent="1">
          <mxGeometry y="10" width="50" height="50" relative="1" as="geometry">
            <mxPoint x="120" y="240" as="sourcePoint" />
            <mxPoint x="280" y="240" as="targetPoint" />
            <mxPoint as="offset" />
          </mxGeometry>
        </mxCell>
        <mxCell id="guAKBY9zXK_D3ZB1R3vA-17" value="&lt;div&gt;QUAD_H_4&lt;/div&gt;" style="endArrow=baseDash;html=1;rounded=0;endFill=0;startArrow=cross;startFill=0;" edge="1" parent="1">
          <mxGeometry x="0.0006" y="10" width="50" height="50" relative="1" as="geometry">
            <mxPoint x="120" y="280" as="sourcePoint" />
            <mxPoint x="280" y="280" as="targetPoint" />
            <mxPoint as="offset" />
          </mxGeometry>
        </mxCell>
        <mxCell id="guAKBY9zXK_D3ZB1R3vA-18" value="" style="whiteSpace=wrap;html=1;aspect=fixed;" vertex="1" parent="1">
          <mxGeometry x="320" y="80" width="240" height="240" as="geometry" />
        </mxCell>
        <mxCell id="guAKBY9zXK_D3ZB1R3vA-19" value="&lt;div&gt;QUAD_H_0&lt;/div&gt;" style="endArrow=none;html=1;rounded=0;startArrow=baseDash;startFill=0;" edge="1" parent="1">
          <mxGeometry x="0.0006" y="10" width="50" height="50" relative="1" as="geometry">
            <mxPoint x="360" y="120" as="sourcePoint" />
            <mxPoint x="520" y="120" as="targetPoint" />
            <mxPoint as="offset" />
          </mxGeometry>
        </mxCell>
        <mxCell id="guAKBY9zXK_D3ZB1R3vA-20" value="&lt;div&gt;QUAD_H_1&lt;/div&gt;" style="endArrow=none;html=1;rounded=0;" edge="1" parent="1">
          <mxGeometry x="0.0006" y="10" width="50" height="50" relative="1" as="geometry">
            <mxPoint x="360" y="160" as="sourcePoint" />
            <mxPoint x="520" y="160" as="targetPoint" />
            <mxPoint as="offset" />
          </mxGeometry>
        </mxCell>
        <mxCell id="guAKBY9zXK_D3ZB1R3vA-21" value="&lt;div&gt;QUAD_H_2&lt;/div&gt;" style="endArrow=none;html=1;rounded=0;" edge="1" parent="1">
          <mxGeometry y="10" width="50" height="50" relative="1" as="geometry">
            <mxPoint x="360" y="199.76" as="sourcePoint" />
            <mxPoint x="520" y="199.76" as="targetPoint" />
            <mxPoint as="offset" />
          </mxGeometry>
        </mxCell>
        <mxCell id="guAKBY9zXK_D3ZB1R3vA-22" value="&lt;div&gt;QUAD_H_3&lt;/div&gt;" style="endArrow=none;html=1;rounded=0;" edge="1" parent="1">
          <mxGeometry y="10" width="50" height="50" relative="1" as="geometry">
            <mxPoint x="360" y="240" as="sourcePoint" />
            <mxPoint x="520" y="240" as="targetPoint" />
            <mxPoint as="offset" />
          </mxGeometry>
        </mxCell>
        <mxCell id="guAKBY9zXK_D3ZB1R3vA-23" value="&lt;div&gt;QUAD_H_4&lt;/div&gt;" style="endArrow=baseDash;html=1;rounded=0;endFill=0;" edge="1" parent="1">
          <mxGeometry x="0.0006" y="10" width="50" height="50" relative="1" as="geometry">
            <mxPoint x="360" y="280" as="sourcePoint" />
            <mxPoint x="520" y="280" as="targetPoint" />
            <mxPoint as="offset" />
          </mxGeometry>
        </mxCell>
        <mxCell id="guAKBY9zXK_D3ZB1R3vA-30" value="" style="whiteSpace=wrap;html=1;aspect=fixed;" vertex="1" parent="1">
          <mxGeometry x="560" y="80" width="240" height="240" as="geometry" />
        </mxCell>
        <mxCell id="guAKBY9zXK_D3ZB1R3vA-31" value="&lt;div&gt;QUAD_H_0&lt;/div&gt;" style="endArrow=none;html=1;rounded=0;startArrow=baseDash;startFill=0;" edge="1" parent="1">
          <mxGeometry x="0.0006" y="10" width="50" height="50" relative="1" as="geometry">
            <mxPoint x="600" y="120" as="sourcePoint" />
            <mxPoint x="760" y="120" as="targetPoint" />
            <mxPoint as="offset" />
          </mxGeometry>
        </mxCell>
        <mxCell id="guAKBY9zXK_D3ZB1R3vA-32" value="&lt;div&gt;QUAD_H_1&lt;/div&gt;" style="endArrow=none;html=1;rounded=0;" edge="1" parent="1">
          <mxGeometry x="0.0006" y="10" width="50" height="50" relative="1" as="geometry">
            <mxPoint x="600" y="160" as="sourcePoint" />
            <mxPoint x="760" y="160" as="targetPoint" />
            <mxPoint as="offset" />
          </mxGeometry>
        </mxCell>
        <mxCell id="guAKBY9zXK_D3ZB1R3vA-33" value="&lt;div&gt;QUAD_H_2&lt;/div&gt;" style="endArrow=none;html=1;rounded=0;" edge="1" parent="1">
          <mxGeometry y="10" width="50" height="50" relative="1" as="geometry">
            <mxPoint x="600" y="199.76" as="sourcePoint" />
            <mxPoint x="760" y="199.76" as="targetPoint" />
            <mxPoint as="offset" />
          </mxGeometry>
        </mxCell>
        <mxCell id="guAKBY9zXK_D3ZB1R3vA-34" value="&lt;div&gt;QUAD_H_3&lt;/div&gt;" style="endArrow=none;html=1;rounded=0;" edge="1" parent="1">
          <mxGeometry y="10" width="50" height="50" relative="1" as="geometry">
            <mxPoint x="600" y="240" as="sourcePoint" />
            <mxPoint x="760" y="240" as="targetPoint" />
            <mxPoint as="offset" />
          </mxGeometry>
        </mxCell>
        <mxCell id="guAKBY9zXK_D3ZB1R3vA-35" value="&lt;div&gt;QUAD_H_4&lt;/div&gt;" style="endArrow=baseDash;html=1;rounded=0;endFill=0;" edge="1" parent="1">
          <mxGeometry x="0.0006" y="10" width="50" height="50" relative="1" as="geometry">
            <mxPoint x="600" y="280" as="sourcePoint" />
            <mxPoint x="760" y="280" as="targetPoint" />
            <mxPoint as="offset" />
          </mxGeometry>
        </mxCell>
        <mxCell id="guAKBY9zXK_D3ZB1R3vA-36" value="" style="whiteSpace=wrap;html=1;aspect=fixed;" vertex="1" parent="1">
          <mxGeometry x="800" y="80" width="240" height="240" as="geometry" />
        </mxCell>
        <mxCell id="guAKBY9zXK_D3ZB1R3vA-37" value="&lt;div&gt;QUAD_H_0&lt;/div&gt;" style="endArrow=none;html=1;rounded=0;startArrow=baseDash;startFill=0;" edge="1" parent="1">
          <mxGeometry x="0.0006" y="10" width="50" height="50" relative="1" as="geometry">
            <mxPoint x="840" y="120" as="sourcePoint" />
            <mxPoint x="1000" y="120" as="targetPoint" />
            <mxPoint as="offset" />
          </mxGeometry>
        </mxCell>
        <mxCell id="guAKBY9zXK_D3ZB1R3vA-38" value="&lt;div&gt;QUAD_H_1&lt;/div&gt;" style="endArrow=none;html=1;rounded=0;" edge="1" parent="1">
          <mxGeometry x="0.0006" y="10" width="50" height="50" relative="1" as="geometry">
            <mxPoint x="840" y="160" as="sourcePoint" />
            <mxPoint x="1000" y="160" as="targetPoint" />
            <mxPoint as="offset" />
          </mxGeometry>
        </mxCell>
        <mxCell id="guAKBY9zXK_D3ZB1R3vA-39" value="&lt;div&gt;QUAD_H_2&lt;/div&gt;" style="endArrow=none;html=1;rounded=0;" edge="1" parent="1">
          <mxGeometry y="10" width="50" height="50" relative="1" as="geometry">
            <mxPoint x="840" y="199.76" as="sourcePoint" />
            <mxPoint x="1000" y="199.76" as="targetPoint" />
            <mxPoint as="offset" />
          </mxGeometry>
        </mxCell>
        <mxCell id="guAKBY9zXK_D3ZB1R3vA-40" value="&lt;div&gt;QUAD_H_3&lt;/div&gt;" style="endArrow=none;html=1;rounded=0;" edge="1" parent="1">
          <mxGeometry y="10" width="50" height="50" relative="1" as="geometry">
            <mxPoint x="840" y="240" as="sourcePoint" />
            <mxPoint x="1000" y="240" as="targetPoint" />
            <mxPoint as="offset" />
          </mxGeometry>
        </mxCell>
        <mxCell id="guAKBY9zXK_D3ZB1R3vA-41" value="&lt;div&gt;QUAD_H_4&lt;/div&gt;" style="endArrow=baseDash;html=1;rounded=0;endFill=0;" edge="1" parent="1">
          <mxGeometry x="0.0006" y="10" width="50" height="50" relative="1" as="geometry">
            <mxPoint x="840" y="280" as="sourcePoint" />
            <mxPoint x="1000" y="280" as="targetPoint" />
            <mxPoint as="offset" />
          </mxGeometry>
        </mxCell>
        <mxCell id="guAKBY9zXK_D3ZB1R3vA-42" value="" style="whiteSpace=wrap;html=1;aspect=fixed;" vertex="1" parent="1">
          <mxGeometry x="1040" y="80" width="240" height="240" as="geometry" />
        </mxCell>
        <mxCell id="guAKBY9zXK_D3ZB1R3vA-43" value="&lt;div&gt;QUAD_H_0&lt;/div&gt;" style="endArrow=none;html=1;rounded=0;startArrow=baseDash;startFill=0;" edge="1" parent="1">
          <mxGeometry x="0.0006" y="10" width="50" height="50" relative="1" as="geometry">
            <mxPoint x="1080" y="120" as="sourcePoint" />
            <mxPoint x="1240" y="120" as="targetPoint" />
            <mxPoint as="offset" />
          </mxGeometry>
        </mxCell>
        <mxCell id="guAKBY9zXK_D3ZB1R3vA-44" value="&lt;div&gt;QUAD_H_1&lt;/div&gt;" style="endArrow=none;html=1;rounded=0;" edge="1" parent="1">
          <mxGeometry x="0.0006" y="10" width="50" height="50" relative="1" as="geometry">
            <mxPoint x="1080" y="160" as="sourcePoint" />
            <mxPoint x="1240" y="160" as="targetPoint" />
            <mxPoint as="offset" />
          </mxGeometry>
        </mxCell>
        <mxCell id="guAKBY9zXK_D3ZB1R3vA-45" value="&lt;div&gt;QUAD_H_2&lt;/div&gt;" style="endArrow=none;html=1;rounded=0;" edge="1" parent="1">
          <mxGeometry y="10" width="50" height="50" relative="1" as="geometry">
            <mxPoint x="1080" y="199.76" as="sourcePoint" />
            <mxPoint x="1240" y="199.76" as="targetPoint" />
            <mxPoint as="offset" />
          </mxGeometry>
        </mxCell>
        <mxCell id="guAKBY9zXK_D3ZB1R3vA-46" value="&lt;div&gt;QUAD_H_3&lt;/div&gt;" style="endArrow=none;html=1;rounded=0;" edge="1" parent="1">
          <mxGeometry y="10" width="50" height="50" relative="1" as="geometry">
            <mxPoint x="1080" y="240" as="sourcePoint" />
            <mxPoint x="1240" y="240" as="targetPoint" />
            <mxPoint as="offset" />
          </mxGeometry>
        </mxCell>
        <mxCell id="guAKBY9zXK_D3ZB1R3vA-47" value="&lt;div&gt;QUAD_H_4&lt;/div&gt;" style="endArrow=baseDash;html=1;rounded=0;endFill=0;" edge="1" parent="1">
          <mxGeometry x="0.0006" y="10" width="50" height="50" relative="1" as="geometry">
            <mxPoint x="1080" y="280" as="sourcePoint" />
            <mxPoint x="1240" y="280" as="targetPoint" />
            <mxPoint as="offset" />
          </mxGeometry>
        </mxCell>
        <mxCell id="guAKBY9zXK_D3ZB1R3vA-50" value="" style="edgeStyle=none;orthogonalLoop=1;jettySize=auto;html=1;rounded=0;endArrow=none;startFill=0;" edge="1" parent="1">
          <mxGeometry width="80" relative="1" as="geometry">
            <mxPoint x="280" y="120" as="sourcePoint" />
            <mxPoint x="360" y="160" as="targetPoint" />
            <Array as="points" />
          </mxGeometry>
        </mxCell>
        <mxCell id="guAKBY9zXK_D3ZB1R3vA-51" value="" style="edgeStyle=none;orthogonalLoop=1;jettySize=auto;html=1;rounded=0;endArrow=none;startFill=0;" edge="1" parent="1">
          <mxGeometry width="80" relative="1" as="geometry">
            <mxPoint x="280" y="160" as="sourcePoint" />
            <mxPoint x="360" y="200" as="targetPoint" />
            <Array as="points" />
          </mxGeometry>
        </mxCell>
        <mxCell id="guAKBY9zXK_D3ZB1R3vA-52" value="" style="edgeStyle=none;orthogonalLoop=1;jettySize=auto;html=1;rounded=0;endArrow=none;startFill=0;" edge="1" parent="1">
          <mxGeometry width="80" relative="1" as="geometry">
            <mxPoint x="280" y="200" as="sourcePoint" />
            <mxPoint x="360" y="240" as="targetPoint" />
            <Array as="points" />
          </mxGeometry>
        </mxCell>
        <mxCell id="guAKBY9zXK_D3ZB1R3vA-53" value="" style="edgeStyle=none;orthogonalLoop=1;jettySize=auto;html=1;rounded=0;endArrow=none;startFill=0;" edge="1" parent="1">
          <mxGeometry width="80" relative="1" as="geometry">
            <mxPoint x="280" y="240" as="sourcePoint" />
            <mxPoint x="360" y="280" as="targetPoint" />
            <Array as="points" />
          </mxGeometry>
        </mxCell>
        <mxCell id="guAKBY9zXK_D3ZB1R3vA-54" value="" style="edgeStyle=none;orthogonalLoop=1;jettySize=auto;html=1;rounded=0;endArrow=none;startFill=0;" edge="1" parent="1">
          <mxGeometry width="80" relative="1" as="geometry">
            <mxPoint x="520" y="120" as="sourcePoint" />
            <mxPoint x="600" y="160" as="targetPoint" />
            <Array as="points" />
          </mxGeometry>
        </mxCell>
        <mxCell id="guAKBY9zXK_D3ZB1R3vA-55" value="" style="edgeStyle=none;orthogonalLoop=1;jettySize=auto;html=1;rounded=0;endArrow=none;startFill=0;" edge="1" parent="1">
          <mxGeometry width="80" relative="1" as="geometry">
            <mxPoint x="520" y="160" as="sourcePoint" />
            <mxPoint x="600" y="200" as="targetPoint" />
            <Array as="points" />
          </mxGeometry>
        </mxCell>
        <mxCell id="guAKBY9zXK_D3ZB1R3vA-56" value="" style="edgeStyle=none;orthogonalLoop=1;jettySize=auto;html=1;rounded=0;endArrow=none;startFill=0;" edge="1" parent="1">
          <mxGeometry width="80" relative="1" as="geometry">
            <mxPoint x="520" y="200" as="sourcePoint" />
            <mxPoint x="600" y="240" as="targetPoint" />
            <Array as="points" />
          </mxGeometry>
        </mxCell>
        <mxCell id="guAKBY9zXK_D3ZB1R3vA-57" value="" style="edgeStyle=none;orthogonalLoop=1;jettySize=auto;html=1;rounded=0;endArrow=none;startFill=0;" edge="1" parent="1">
          <mxGeometry width="80" relative="1" as="geometry">
            <mxPoint x="520" y="240" as="sourcePoint" />
            <mxPoint x="600" y="280" as="targetPoint" />
            <Array as="points" />
          </mxGeometry>
        </mxCell>
        <mxCell id="guAKBY9zXK_D3ZB1R3vA-58" value="" style="edgeStyle=none;orthogonalLoop=1;jettySize=auto;html=1;rounded=0;endArrow=none;startFill=0;" edge="1" parent="1">
          <mxGeometry width="80" relative="1" as="geometry">
            <mxPoint x="760" y="120" as="sourcePoint" />
            <mxPoint x="840" y="160" as="targetPoint" />
            <Array as="points" />
          </mxGeometry>
        </mxCell>
        <mxCell id="guAKBY9zXK_D3ZB1R3vA-59" value="" style="edgeStyle=none;orthogonalLoop=1;jettySize=auto;html=1;rounded=0;endArrow=none;startFill=0;" edge="1" parent="1">
          <mxGeometry width="80" relative="1" as="geometry">
            <mxPoint x="760" y="160" as="sourcePoint" />
            <mxPoint x="840" y="200" as="targetPoint" />
            <Array as="points" />
          </mxGeometry>
        </mxCell>
        <mxCell id="guAKBY9zXK_D3ZB1R3vA-60" value="" style="edgeStyle=none;orthogonalLoop=1;jettySize=auto;html=1;rounded=0;endArrow=none;startFill=0;" edge="1" parent="1">
          <mxGeometry width="80" relative="1" as="geometry">
            <mxPoint x="760" y="200" as="sourcePoint" />
            <mxPoint x="840" y="240" as="targetPoint" />
            <Array as="points" />
          </mxGeometry>
        </mxCell>
        <mxCell id="guAKBY9zXK_D3ZB1R3vA-61" value="" style="edgeStyle=none;orthogonalLoop=1;jettySize=auto;html=1;rounded=0;endArrow=none;startFill=0;" edge="1" parent="1">
          <mxGeometry width="80" relative="1" as="geometry">
            <mxPoint x="760" y="240" as="sourcePoint" />
            <mxPoint x="840" y="280" as="targetPoint" />
            <Array as="points" />
          </mxGeometry>
        </mxCell>
        <mxCell id="guAKBY9zXK_D3ZB1R3vA-62" value="" style="edgeStyle=none;orthogonalLoop=1;jettySize=auto;html=1;rounded=0;endArrow=none;startFill=0;" edge="1" parent="1">
          <mxGeometry width="80" relative="1" as="geometry">
            <mxPoint x="1000" y="120" as="sourcePoint" />
            <mxPoint x="1080" y="160" as="targetPoint" />
            <Array as="points" />
          </mxGeometry>
        </mxCell>
        <mxCell id="guAKBY9zXK_D3ZB1R3vA-63" value="" style="edgeStyle=none;orthogonalLoop=1;jettySize=auto;html=1;rounded=0;endArrow=none;startFill=0;" edge="1" parent="1">
          <mxGeometry width="80" relative="1" as="geometry">
            <mxPoint x="1000" y="160" as="sourcePoint" />
            <mxPoint x="1080" y="200" as="targetPoint" />
            <Array as="points" />
          </mxGeometry>
        </mxCell>
        <mxCell id="guAKBY9zXK_D3ZB1R3vA-64" value="" style="edgeStyle=none;orthogonalLoop=1;jettySize=auto;html=1;rounded=0;endArrow=none;startFill=0;" edge="1" parent="1">
          <mxGeometry width="80" relative="1" as="geometry">
            <mxPoint x="1000" y="200" as="sourcePoint" />
            <mxPoint x="1080" y="240" as="targetPoint" />
            <Array as="points" />
          </mxGeometry>
        </mxCell>
        <mxCell id="guAKBY9zXK_D3ZB1R3vA-65" value="" style="edgeStyle=none;orthogonalLoop=1;jettySize=auto;html=1;rounded=0;endArrow=none;startFill=0;" edge="1" parent="1">
          <mxGeometry width="80" relative="1" as="geometry">
            <mxPoint x="1000" y="240" as="sourcePoint" />
            <mxPoint x="1080" y="280" as="targetPoint" />
            <Array as="points" />
          </mxGeometry>
        </mxCell>
        <mxCell id="guAKBY9zXK_D3ZB1R3vA-66" value="" style="edgeStyle=none;orthogonalLoop=1;jettySize=auto;html=1;rounded=0;endArrow=none;startFill=0;dashed=1;" edge="1" parent="1">
          <mxGeometry width="80" relative="1" as="geometry">
            <mxPoint x="1240" y="120" as="sourcePoint" />
            <mxPoint x="1320" y="160" as="targetPoint" />
            <Array as="points" />
          </mxGeometry>
        </mxCell>
        <mxCell id="guAKBY9zXK_D3ZB1R3vA-68" value="" style="edgeStyle=none;orthogonalLoop=1;jettySize=auto;html=1;rounded=0;endArrow=none;startFill=0;dashed=1;" edge="1" parent="1">
          <mxGeometry width="80" relative="1" as="geometry">
            <mxPoint x="1240" y="200" as="sourcePoint" />
            <mxPoint x="1320" y="240" as="targetPoint" />
            <Array as="points" />
          </mxGeometry>
        </mxCell>
        <mxCell id="guAKBY9zXK_D3ZB1R3vA-70" value="" style="edgeStyle=none;orthogonalLoop=1;jettySize=auto;html=1;rounded=0;endArrow=none;startFill=0;dashed=1;" edge="1" parent="1">
          <mxGeometry width="80" relative="1" as="geometry">
            <mxPoint x="1240" y="160" as="sourcePoint" />
            <mxPoint x="1320" y="200" as="targetPoint" />
            <Array as="points" />
          </mxGeometry>
        </mxCell>
        <mxCell id="guAKBY9zXK_D3ZB1R3vA-71" value="" style="edgeStyle=none;orthogonalLoop=1;jettySize=auto;html=1;rounded=0;endArrow=none;startFill=0;dashed=1;" edge="1" parent="1">
          <mxGeometry width="80" relative="1" as="geometry">
            <mxPoint x="1240" y="240" as="sourcePoint" />
            <mxPoint x="1320" y="280" as="targetPoint" />
            <Array as="points" />
          </mxGeometry>
        </mxCell>
        <mxCell id="guAKBY9zXK_D3ZB1R3vA-73" value="X0" style="text;html=1;align=center;verticalAlign=middle;whiteSpace=wrap;rounded=0;" vertex="1" parent="1">
          <mxGeometry x="170" y="50" width="60" height="30" as="geometry" />
        </mxCell>
        <mxCell id="guAKBY9zXK_D3ZB1R3vA-74" value="X1" style="text;html=1;align=center;verticalAlign=middle;whiteSpace=wrap;rounded=0;" vertex="1" parent="1">
          <mxGeometry x="410" y="50" width="60" height="30" as="geometry" />
        </mxCell>
        <mxCell id="guAKBY9zXK_D3ZB1R3vA-75" value="X2" style="text;html=1;align=center;verticalAlign=middle;whiteSpace=wrap;rounded=0;" vertex="1" parent="1">
          <mxGeometry x="650" y="50" width="60" height="30" as="geometry" />
        </mxCell>
        <mxCell id="guAKBY9zXK_D3ZB1R3vA-76" value="&lt;div&gt;X3&lt;/div&gt;" style="text;html=1;align=center;verticalAlign=middle;whiteSpace=wrap;rounded=0;" vertex="1" parent="1">
          <mxGeometry x="890" y="50" width="60" height="30" as="geometry" />
        </mxCell>
        <mxCell id="guAKBY9zXK_D3ZB1R3vA-77" value="X4" style="text;html=1;align=center;verticalAlign=middle;whiteSpace=wrap;rounded=0;" vertex="1" parent="1">
          <mxGeometry x="1130" y="50" width="60" height="30" as="geometry" />
        </mxCell>
        <mxCell id="guAKBY9zXK_D3ZB1R3vA-78" value="Y0" style="text;html=1;align=center;verticalAlign=middle;whiteSpace=wrap;rounded=0;" vertex="1" parent="1">
          <mxGeometry x="20" y="185" width="60" height="30" as="geometry" />
        </mxCell>
      </root>
    </mxGraphModel>
  </diagram>
</mxfile>
